<svg xmlns="http://www.w3.org/2000/svg" viewBox="0 0 3275.54 408.29"><defs><style>.cls-1{fill:#fff;}</style></defs><title>white_logo_branches_right</title><g id="Layer_2" data-name="Layer 2"><g id="Layer_1-2" data-name="Layer 1"><g id="logo_branches"><g id="PALO_IT"><g id="O"><path class="cls-1" d="M3017,30a70,70,0,1,1-70,70,70.08,70.08,0,0,1,70-70m0-30a100,100,0,1,0,100,100A100,100,0,0,0,3017,0Z"/></g><g id="L"><path class="cls-1" d="M2898.58,170H2813V15a15,15,0,0,0-30,0V185.55A14.45,14.45,0,0,0,2797.49,200h101.09A14.45,14.45,0,0,0,2913,185.55v-1.09A14.45,14.45,0,0,0,2898.58,170Z"/></g><g id="A"><path class="cls-1" d="M2741.33,197.69l.21-.14a14.89,14.89,0,0,0,6.32-16.41v0l0-.07c-.12-.42-.25-.83-.4-1.25-.06-.17-.13-.33-.2-.49s-.15-.4-.24-.59L2668.3,10.19a15,15,0,0,0-2.49-4.52l-.24-.29-.27-.32-.13-.16-.26-.27-.4-.39c-.15-.15-.3-.3-.47-.45l-.12-.1h0l-.47-.38c-.22-.18-.45-.35-.68-.52l-.52-.35c-.23-.15-.45-.29-.69-.43s-.45-.24-.67-.36l-.44-.23-.06,0-.15-.06-.66-.27c-.26-.1-.52-.21-.78-.3l-.33-.1a14.84,14.84,0,0,0-9.91.4l-.07,0q-.64.26-1.26.58l-.16.09q-.56.3-1.09.64l-.19.13q-.51.34-1,.72l-.19.16c-.2.17-.41.33-.61.51l-.32.32-.12.12c-.17.17-.34.33-.5.5h0a14.89,14.89,0,0,0-2.88,4.6L2562,177.25a15,15,0,0,0,1.55,17.57l.27.31c.18.2.37.38.57.57s.35.35.54.52l.45.37c.25.2.49.4.75.59l.12.09.35.22c.26.17.52.34.79.5l.63.33c.17.09.33.18.5.27l.06,0,.17.07.59.24c.29.12.59.24.89.33l.24.07a14.89,14.89,0,0,0,16.63-5.71l0,0,0-.07c.25-.36.48-.73.7-1.11.09-.15.17-.31.25-.47s.21-.37.3-.56l65.65-141,65.11,139.44a15,15,0,0,0,14.46,10.1h.41c.27,0,.53,0,.8-.07l.74-.08.58-.11c.31-.06.62-.12.93-.2l.15,0,.39-.13c.3-.09.6-.18.89-.29l.66-.27c.17-.07.35-.13.53-.21l.06,0,.16-.09.56-.3C2740.79,198,2741.07,197.85,2741.33,197.69Z"/></g><path id="P" class="cls-1" d="M2493.54,0h-55a15,15,0,0,0-2.32,29.82,14.74,14.74,0,0,0,2.32.18h55a40,40,0,0,1,0,80h-55a14.74,14.74,0,0,0-2.32.18A15,15,0,0,0,2423.54,125v60a15,15,0,0,0,30,0V140h40a70,70,0,0,0,0-140Z"/><g id="IT"><path id="I" class="cls-1" d="M3163.25,0h-1.43c-3.75,0-6.79,3.6-6.79,8.05v83.9c0,4.45,3,8.05,6.79,8.05h1.43c3.75,0,6.79-3.6,6.79-8.05V8.05C3170,3.6,3167,0,3163.25,0Z"/><path id="T" class="cls-1" d="M3267.49,0h-63.9c-4.45,0-8.05,3-8.05,6.79V8.21c0,3.75,3.6,6.79,8.05,6.79H3227V91.95c0,4.45,3,8.05,6.79,8.05h1.43c3.75,0,6.79-3.6,6.79-8.05V15h25.45c4.45,0,8.05-3,8.05-6.79V6.79C3275.54,3,3271.93,0,3267.49,0Z"/></g></g></g><path class="cls-1" d="M0,350.32H37.39l-.08,7.13H7.87v18.86H34.36v7.13H7.87v24.27H0Z"/><path class="cls-1" d="M89.79,407.72l-11.4-18q-2,.17-3.2.16H60.6v17.88H52.73v-57.4H75.19q10.9,0,16.85,5T98,369.67a20.35,20.35,0,0,1-3.24,11.73,18.14,18.14,0,0,1-9.31,6.89l13.37,19.43Zm-14.6-25q7.38,0,11.32-3.24t3.94-9.55q0-6.15-3.94-9.31t-11.32-3.16H60.6v25.26Z"/><path class="cls-1" d="M160.8,407.72l-6.07-13.94H124.47l-6,13.94h-8.28l25.5-57.4h8.2l25.42,57.4Zm-33.21-21.07H151.7l-12.14-27.88Z"/><path class="cls-1" d="M224.68,350.32h7.79v57.4h-8l-32.8-44.44v44.44h-7.87v-57.4h8l32.88,44.53Z"/><path class="cls-1" d="M289,358.73a22.1,22.1,0,0,0-28.13,9,22.06,22.06,0,0,0,19.19,33.17,22.48,22.48,0,0,0,8.86-1.84,25.62,25.62,0,0,0,7.71-5l4.76,5.17a32,32,0,0,1-10.09,6.68,30.13,30.13,0,0,1-26.65-1.48A29,29,0,0,1,250,378.94a28.24,28.24,0,0,1,4-14.72,28.74,28.74,0,0,1,10.86-10.54A30.54,30.54,0,0,1,280,349.83a30.88,30.88,0,0,1,11.6,2.25,28.72,28.72,0,0,1,9.72,6.35l-4.67,5.66A23.71,23.71,0,0,0,289,358.73Z"/><path class="cls-1" d="M318.57,350.32h39.85v7.13h-32v17.71h28.62v7.13H326.44v18.29h33v7.13H318.57Z"/><path class="cls-1" d="M413.24,375.78a6.72,6.72,0,0,1,1.93,5,7.14,7.14,0,0,1-1.93,5.08,6.64,6.64,0,0,1-9.59,0,7.13,7.13,0,0,1-1.93-5.08,6.71,6.71,0,0,1,1.93-5,6.93,6.93,0,0,1,9.59,0Z"/><path class="cls-1" d="M461.16,350.32H469V375.9h32.8V350.32h8v57.4h-8V383H469v24.68h-7.87Z"/><path class="cls-1" d="M572.64,353.68a29,29,0,0,1,10.95,10.54,28,28,0,0,1,4,14.72,28.46,28.46,0,0,1-4,14.8,29.08,29.08,0,0,1-10.95,10.66,31.65,31.65,0,0,1-30.42,0,29.06,29.06,0,0,1-10.95-10.66,28.45,28.45,0,0,1-4-14.8,28,28,0,0,1,4-14.72,29,29,0,0,1,10.91-10.54,32,32,0,0,1,30.46,0Zm-26.24,6.15a22.43,22.43,0,0,0-8.16,8,21.94,21.94,0,0,0,0,22.26,22.63,22.63,0,0,0,8.16,8.08,21.63,21.63,0,0,0,11.11,3,21.21,21.21,0,0,0,11-3,22.53,22.53,0,0,0,8-8.08,22.2,22.2,0,0,0,0-22.26,22.32,22.32,0,0,0-8-8,21.44,21.44,0,0,0-11-3A21.88,21.88,0,0,0,546.4,359.83Z"/><path class="cls-1" d="M645.91,350.32h7.79v57.4h-8l-32.8-44.44v44.44h-7.87v-57.4h8l32.88,44.53Z"/><path class="cls-1" d="M716,379.68h7v21.07a36.57,36.57,0,0,1-21.73,7.54,30.28,30.28,0,0,1-15.17-3.9,29,29,0,0,1-14.84-25.46,28,28,0,0,1,4-14.72,28.88,28.88,0,0,1,11-10.54,31.32,31.32,0,0,1,15.42-3.85A33.11,33.11,0,0,1,713.35,352a31.4,31.4,0,0,1,9.88,5.82l-4.51,5.74a25,25,0,0,0-7.91-5,24.73,24.73,0,0,0-9.14-1.76,22.41,22.41,0,0,0-11.32,3,21.93,21.93,0,0,0-8.16,8,22.22,22.22,0,0,0,0,22.35,22.44,22.44,0,0,0,8.2,8.12,22.16,22.16,0,0,0,11.32,3,24.08,24.08,0,0,0,7.34-1.19,27.42,27.42,0,0,0,6.93-3.32Z"/><path class="cls-1" d="M819.83,407.72h-9.51l-20.17-26.49-10.58,11.48v15H771.7v-57.4h7.87v32.23l29.36-32.23h9.43l-22.71,24.76Z"/><path class="cls-1" d="M874.15,353.68a29,29,0,0,1,10.95,10.54,28,28,0,0,1,4,14.72,28.46,28.46,0,0,1-4,14.8,29.08,29.08,0,0,1-10.95,10.66,31.65,31.65,0,0,1-30.42,0,29.06,29.06,0,0,1-10.95-10.66,28.45,28.45,0,0,1-4-14.8,28,28,0,0,1,4-14.72,29,29,0,0,1,10.91-10.54,32,32,0,0,1,30.46,0Zm-26.24,6.15a22.43,22.43,0,0,0-8.16,8,21.94,21.94,0,0,0,0,22.26,22.64,22.64,0,0,0,8.16,8.08,21.64,21.64,0,0,0,11.11,3,21.21,21.21,0,0,0,11-3,22.53,22.53,0,0,0,8-8.08,22.2,22.2,0,0,0,0-22.26,22.32,22.32,0,0,0-8-8,21.45,21.45,0,0,0-11-3A21.88,21.88,0,0,0,847.91,359.83Z"/><path class="cls-1" d="M947.42,350.32h7.79v57.4h-8l-32.8-44.44v44.44h-7.87v-57.4h8l32.88,44.53Z"/><path class="cls-1" d="M1017.53,379.68h7v21.07a36.57,36.57,0,0,1-21.73,7.54,30.28,30.28,0,0,1-15.17-3.9,29,29,0,0,1-14.84-25.46,28,28,0,0,1,4-14.72,28.88,28.88,0,0,1,11-10.54,31.32,31.32,0,0,1,15.42-3.85,33.11,33.11,0,0,1,11.68,2.13,31.4,31.4,0,0,1,9.88,5.82l-4.51,5.74a25,25,0,0,0-7.91-5,24.73,24.73,0,0,0-9.14-1.76,22.41,22.41,0,0,0-11.32,3,21.93,21.93,0,0,0-8.16,8,22.22,22.22,0,0,0,0,22.35,22.44,22.44,0,0,0,8.2,8.12,22.16,22.16,0,0,0,11.32,3,24.08,24.08,0,0,0,7.34-1.19,27.41,27.41,0,0,0,6.93-3.32Z"/><path class="cls-1" d="M1080.55,375.78a6.72,6.72,0,0,1,1.93,5,7.14,7.14,0,0,1-1.93,5.08,6.64,6.64,0,0,1-9.59,0,7.13,7.13,0,0,1-1.93-5.08,6.71,6.71,0,0,1,1.93-5,6.93,6.93,0,0,1,9.59,0Z"/><path class="cls-1" d="M1153.69,358.48a28.15,28.15,0,0,0-7.91-1.27,14.61,14.61,0,0,0-8,1.93,6,6,0,0,0-3,5.29,7,7,0,0,0,1.8,5,12.75,12.75,0,0,0,4.43,3q2.62,1.11,7.3,2.58a82.57,82.57,0,0,1,9.43,3.44,16.35,16.35,0,0,1,6.15,4.88,13.5,13.5,0,0,1,2.54,8.57,14.32,14.32,0,0,1-2.67,8.61,17.07,17.07,0,0,1-7.46,5.7,28.34,28.34,0,0,1-11,2,32.07,32.07,0,0,1-12.3-2.46,33.34,33.34,0,0,1-10.33-6.56l3.53-6.81a29.57,29.57,0,0,0,9.22,6.19,25.42,25.42,0,0,0,10,2.17q5.74,0,9.06-2.25a7,7,0,0,0,3.32-6.11,7.12,7.12,0,0,0-1.8-5,12.74,12.74,0,0,0-4.55-3.12,77.93,77.93,0,0,0-7.42-2.54,75.64,75.64,0,0,1-9.35-3.36,16.13,16.13,0,0,1-6.11-4.84,13.32,13.32,0,0,1-2.5-8.45,13.52,13.52,0,0,1,2.54-8.12,16.05,16.05,0,0,1,7.13-5.41,27.91,27.91,0,0,1,10.66-1.89,34.47,34.47,0,0,1,10.13,1.52,34,34,0,0,1,8.82,4.06l-3.28,7.05A33.12,33.12,0,0,0,1153.69,358.48Z"/><path class="cls-1" d="M1185.14,350.32H1193v57.4h-7.87Z"/><path class="cls-1" d="M1256.39,350.32h7.79v57.4h-8l-32.8-44.44v44.44h-7.87v-57.4h8l32.88,44.53Z"/><path class="cls-1" d="M1326.5,379.68h7v21.07a36.57,36.57,0,0,1-21.73,7.54,30.28,30.28,0,0,1-15.17-3.9,29,29,0,0,1-14.84-25.46,28,28,0,0,1,4-14.72,28.88,28.88,0,0,1,11-10.54,31.32,31.32,0,0,1,15.42-3.85,33.11,33.11,0,0,1,11.68,2.13,31.4,31.4,0,0,1,9.88,5.82l-4.51,5.74a25,25,0,0,0-7.91-5,24.73,24.73,0,0,0-9.14-1.76,22.41,22.41,0,0,0-11.32,3,21.93,21.93,0,0,0-8.16,8,22.22,22.22,0,0,0,0,22.35,22.44,22.44,0,0,0,8.2,8.12,22.16,22.16,0,0,0,11.32,3,24.08,24.08,0,0,0,7.34-1.19,27.41,27.41,0,0,0,6.93-3.32Z"/><path class="cls-1" d="M1397.19,407.72l-6.07-13.94h-30.26l-6,13.94h-8.28l25.5-57.4h8.2l25.42,57.4ZM1364,386.65h24.11l-12.14-27.88Z"/><path class="cls-1" d="M1459,355.4q5.86,5.09,5.86,14.27,0,9.59-5.9,14.88t-16.56,5.29H1428.1v17.88h-7.87v-57.4h22.14Q1453.11,350.32,1459,355.4Zm-5.62,24.07q3.94-3.24,3.94-9.55,0-6.15-3.94-9.31T1442,357.45l-13.94.08v25.17H1442Q1449.42,382.71,1453.36,379.47Z"/><path class="cls-1" d="M1521.7,353.68a29,29,0,0,1,10.95,10.54,28,28,0,0,1,4,14.72,28.46,28.46,0,0,1-4,14.8,29.08,29.08,0,0,1-10.95,10.66,31.65,31.65,0,0,1-30.42,0,29.06,29.06,0,0,1-10.95-10.66,28.45,28.45,0,0,1-4-14.8,28,28,0,0,1,4-14.72,29,29,0,0,1,10.91-10.54,32,32,0,0,1,30.46,0Zm-26.24,6.15a22.43,22.43,0,0,0-8.16,8,21.94,21.94,0,0,0,0,22.26,22.63,22.63,0,0,0,8.16,8.08,21.63,21.63,0,0,0,11.11,3,21.21,21.21,0,0,0,11-3,22.53,22.53,0,0,0,8-8.08,22.2,22.2,0,0,0,0-22.26,22.32,22.32,0,0,0-8-8,21.45,21.45,0,0,0-11-3A21.88,21.88,0,0,0,1495.46,359.83Z"/><path class="cls-1" d="M1591.2,407.72l-11.4-18q-2,.17-3.2.16H1562v17.88h-7.87v-57.4h22.47q10.9,0,16.85,5t5.95,14.31a20.35,20.35,0,0,1-3.24,11.73,18.14,18.14,0,0,1-9.31,6.89l13.37,19.43Zm-14.6-25q7.38,0,11.32-3.24t3.94-9.55q0-6.15-3.94-9.31t-11.32-3.16H1562v25.26Z"/><path class="cls-1" d="M1619.57,350.32h39.85v7.13h-32v17.71h28.62v7.13h-28.62v18.29h33v7.13h-40.84Z"/><path class="cls-1" d="M1714.24,375.78a6.72,6.72,0,0,1,1.93,5,7.14,7.14,0,0,1-1.93,5.08,6.64,6.64,0,0,1-9.59,0,7.13,7.13,0,0,1-1.93-5.08,6.71,6.71,0,0,1,1.93-5,6.93,6.93,0,0,1,9.59,0Z"/><path class="cls-1" d="M1754.78,350.32h44.85v7.22h-18.53v50.18h-7.87V357.54h-18.45Z"/><path class="cls-1" d="M1814.81,350.32h7.87V375.9h32.8V350.32h8v57.4h-8V383h-32.8v24.68h-7.87Z"/><path class="cls-1" d="M1928.62,407.72l-6.07-13.94H1892.3l-6,13.94H1878l25.5-57.4h8.2l25.42,57.4Zm-33.21-21.07h24.11l-12.14-27.88Z"/><path class="cls-1" d="M1951.66,350.32h7.87v57.4h-7.87Z"/><path class="cls-1" d="M1982.09,350.32H1990v50.27H2015v7.13h-33Z"/><path class="cls-1" d="M2074.42,407.72l-6.07-13.94h-30.26l-6,13.94h-8.28l25.5-57.4h8.2l25.42,57.4Zm-33.21-21.07h24.11l-12.14-27.88Z"/><path class="cls-1" d="M2138.29,350.32h7.79v57.4h-8l-32.8-44.44v44.44h-7.87v-57.4h8l32.88,44.53Z"/><path class="cls-1" d="M2207.21,354.05a27.47,27.47,0,0,1,10.62,10.29,29.74,29.74,0,0,1,0,29.36,27.67,27.67,0,0,1-10.7,10.29,31.19,31.19,0,0,1-15.25,3.73h-23.12v-57.4h23.37A30.8,30.8,0,0,1,2207.21,354.05Zm-4.1,43.75a20.46,20.46,0,0,0,7.71-7.71,22.77,22.77,0,0,0,0-22.06,20.9,20.9,0,0,0-7.83-7.75,21.87,21.87,0,0,0-11-2.83h-15.33v43.13h15.66A21.51,21.51,0,0,0,2203.11,397.8Z"/><path class="cls-1" d="M2274,375.78a6.72,6.72,0,0,1,1.93,5,7.14,7.14,0,0,1-1.93,5.08,6.64,6.64,0,0,1-9.59,0,7.13,7.13,0,0,1-1.93-5.08,6.71,6.71,0,0,1,1.93-5,6.93,6.93,0,0,1,9.59,0Z"/><path class="cls-1" d="M2364.61,407.72l-6.07-13.94h-30.26l-6,13.94H2314l25.5-57.4h8.2l25.42,57.4Zm-33.21-21.07h24.11l-12.14-27.88Z"/><path class="cls-1" d="M2397,396.69q4.39,4.47,12.1,4.47t12-4.47q4.35-4.47,4.35-12.42V350.32h7.87v33.95q0,11.24-6.44,17.63t-17.75,6.4q-11.4,0-17.88-6.4t-6.48-17.63V350.32h7.87v33.95Q2392.65,392.22,2397,396.69Z"/><path class="cls-1" d="M2479.86,358.48a28.15,28.15,0,0,0-7.91-1.27,14.61,14.61,0,0,0-8,1.93,6,6,0,0,0-3,5.29,7,7,0,0,0,1.8,5,12.76,12.76,0,0,0,4.43,3q2.62,1.11,7.3,2.58a82.57,82.57,0,0,1,9.43,3.44,16.35,16.35,0,0,1,6.15,4.88,13.5,13.5,0,0,1,2.54,8.57,14.32,14.32,0,0,1-2.67,8.61,17.06,17.06,0,0,1-7.46,5.7,28.33,28.33,0,0,1-11,2,32.07,32.07,0,0,1-12.3-2.46,33.34,33.34,0,0,1-10.33-6.56l3.53-6.81a29.57,29.57,0,0,0,9.22,6.19,25.42,25.42,0,0,0,10,2.17q5.74,0,9.06-2.25a7,7,0,0,0,3.32-6.11,7.12,7.12,0,0,0-1.8-5,12.73,12.73,0,0,0-4.55-3.12,78,78,0,0,0-7.42-2.54,75.64,75.64,0,0,1-9.35-3.36,16.13,16.13,0,0,1-6.11-4.84,13.32,13.32,0,0,1-2.5-8.45,13.52,13.52,0,0,1,2.54-8.12,16.05,16.05,0,0,1,7.13-5.41,27.91,27.91,0,0,1,10.66-1.89,34.47,34.47,0,0,1,10.13,1.52,34,34,0,0,1,8.81,4.06l-3.28,7.05A33.12,33.12,0,0,0,2479.86,358.48Z"/><path class="cls-1" d="M2503.93,350.32h44.85v7.22h-18.53v50.18h-7.87V357.54h-18.45Z"/><path class="cls-1" d="M2601,407.72l-11.4-18q-2,.17-3.2.16h-14.6v17.88H2564v-57.4h22.47q10.91,0,16.85,5t5.95,14.31A20.35,20.35,0,0,1,2606,381.4a18.14,18.14,0,0,1-9.31,6.89L2610,407.72Zm-14.6-25q7.38,0,11.32-3.24t3.94-9.55q0-6.15-3.94-9.31t-11.32-3.16h-14.6v25.26Z"/><path class="cls-1" d="M2672,407.72,2666,393.78H2635.7l-6,13.94h-8.28l25.5-57.4h8.2l25.42,57.4Zm-33.21-21.07h24.11l-12.14-27.88Z"/><path class="cls-1" d="M2695.07,350.32h7.87v50.27H2728v7.13h-33Z"/><path class="cls-1" d="M2744.18,350.32h7.87v57.4h-7.87Z"/><path class="cls-1" d="M2817.25,407.72l-6.07-13.94h-30.26l-6,13.94h-8.28l25.5-57.4h8.2l25.42,57.4ZM2784,386.65h24.11L2796,358.77Z"/><path class="cls-1" d="M2875.26,375.78a6.72,6.72,0,0,1,1.93,5,7.14,7.14,0,0,1-1.93,5.08,6.64,6.64,0,0,1-9.59,0,7.13,7.13,0,0,1-1.93-5.08,6.71,6.71,0,0,1,1.93-5,6.93,6.93,0,0,1,9.59,0Z"/><path class="cls-1" d="M2923.19,350.32h9.35l21,40.34,20.83-40.34h9.43v57.4h-7.38l-.08-45.84-20.42,39.77h-4.84l-20.58-39.77v45.84h-7.3Z"/><path class="cls-1" d="M3006.33,350.32h39.85v7.13h-32v17.71h28.62v7.13h-28.62v18.29h33v7.13h-40.84Z"/><path class="cls-1" d="M3060.87,350.32H3070l15.09,21.4,15.17-21.4h9.27l-19.43,27.55,21.07,29.85h-9.43l-16.65-23.21-16.48,23.21h-9.27l21-29.52Z"/><path class="cls-1" d="M3127.69,350.32h7.87v57.4h-7.87Z"/><path class="cls-1" d="M3192.06,358.73a22.1,22.1,0,0,0-28.13,9,22.06,22.06,0,0,0,19.19,33.17,22.47,22.47,0,0,0,8.86-1.84,25.61,25.61,0,0,0,7.71-5l4.76,5.17a32,32,0,0,1-10.09,6.68,30.13,30.13,0,0,1-26.65-1.48A29,29,0,0,1,3153,378.94a28.25,28.25,0,0,1,4-14.72,28.75,28.75,0,0,1,10.87-10.54,30.54,30.54,0,0,1,15.17-3.85,30.88,30.88,0,0,1,11.6,2.25,28.72,28.72,0,0,1,9.72,6.35l-4.67,5.66A23.71,23.71,0,0,0,3192.06,358.73Z"/><path class="cls-1" d="M3260.57,353.68a29,29,0,0,1,10.95,10.54,28,28,0,0,1,4,14.72,28.46,28.46,0,0,1-4,14.8,29.08,29.08,0,0,1-10.95,10.66,31.65,31.65,0,0,1-30.42,0,29.06,29.06,0,0,1-10.95-10.66,28.45,28.45,0,0,1-4-14.8,28,28,0,0,1,4-14.72,29.05,29.05,0,0,1,10.91-10.54,32,32,0,0,1,30.46,0Zm-26.24,6.15a22.43,22.43,0,0,0-8.16,8,21.94,21.94,0,0,0,0,22.26,22.63,22.63,0,0,0,8.16,8.08,21.63,21.63,0,0,0,11.11,3,21.21,21.21,0,0,0,11-3,22.52,22.52,0,0,0,8-8.08,22.2,22.2,0,0,0,0-22.26,22.32,22.32,0,0,0-8-8,21.44,21.44,0,0,0-11-3A21.88,21.88,0,0,0,3234.33,359.83Z"/></g></g></svg>
